<svg xmlns="http://www.w3.org/2000/svg" width="384" height="48" viewBox="0 0 384 48">
  <rect width="384" height="48" fill="#00000000"/>
  <g transform="translate(0 0)">
    <rect x="11" y="9" width="10" height="10" fill="#d9c7a1"/>
    <rect x="12" y="10" width="8" height="7" fill="#f3ead7"/>
    <rect x="10" y="6" width="12" height="4" fill="#f0d35d"/>
    <rect x="8" y="18" width="16" height="14" fill="#5a8f4d"/>
    <rect x="7" y="18" width="4" height="12" fill="#28495a"/>
    <rect x="21" y="18" width="4" height="12" fill="#28495a"/>
    <rect x="13" y="22" width="6" height="3" fill="#7fc97f"/>
    <rect x="9" y="33" width="4" height="10" fill="#10151e"/>
    <rect x="19" y="33" width="4" height="10" fill="#10151e"/>
  </g>
  <g transform="translate(32 0)">
    <rect x="11" y="10" width="10" height="10" fill="#d9c7a1"/>
    <rect x="12" y="11" width="8" height="7" fill="#f3ead7"/>
    <rect x="10" y="7" width="12" height="4" fill="#f0d35d"/>
    <rect x="8" y="19" width="16" height="14" fill="#5a8f4d"/>
    <rect x="7" y="19" width="4" height="12" fill="#28495a"/>
    <rect x="21" y="19" width="4" height="12" fill="#28495a"/>
    <rect x="13" y="23" width="6" height="3" fill="#7fc97f"/>
    <rect x="10" y="33" width="4" height="10" fill="#10151e"/>
    <rect x="18" y="33" width="4" height="10" fill="#10151e"/>
  </g>
  <g transform="translate(64 0)">
    <rect x="11" y="9" width="10" height="10" fill="#d9c7a1"/>
    <rect x="12" y="10" width="8" height="7" fill="#f3ead7"/>
    <rect x="10" y="6" width="12" height="4" fill="#f0d35d"/>
    <rect x="8" y="18" width="16" height="14" fill="#5a8f4d"/>
    <rect x="7" y="18" width="4" height="12" fill="#28495a"/>
    <rect x="21" y="18" width="4" height="12" fill="#28495a"/>
    <rect x="13" y="22" width="6" height="3" fill="#7fc97f"/>
    <rect x="12" y="33" width="4" height="10" fill="#10151e"/>
    <rect x="16" y="33" width="4" height="10" fill="#10151e"/>
  </g>
  <g transform="translate(96 0)">
    <rect x="11" y="9" width="10" height="10" fill="#d9c7a1"/>
    <rect x="12" y="10" width="8" height="7" fill="#f3ead7"/>
    <rect x="10" y="6" width="12" height="4" fill="#f0d35d"/>
    <rect x="8" y="18" width="16" height="14" fill="#5a8f4d"/>
    <rect x="7" y="18" width="4" height="12" fill="#28495a"/>
    <rect x="21" y="18" width="4" height="12" fill="#28495a"/>
    <rect x="13" y="22" width="6" height="3" fill="#7fc97f"/>
    <rect x="9" y="33" width="4" height="10" fill="#10151e"/>
    <rect x="19" y="33" width="4" height="10" fill="#10151e"/>
  </g>
  <g transform="translate(128 0)">
    <rect x="11" y="10" width="10" height="10" fill="#d9c7a1"/>
    <rect x="12" y="11" width="8" height="7" fill="#f3ead7"/>
    <rect x="10" y="7" width="12" height="4" fill="#f0d35d"/>
    <rect x="8" y="19" width="16" height="14" fill="#5a8f4d"/>
    <rect x="7" y="19" width="4" height="12" fill="#28495a"/>
    <rect x="21" y="19" width="4" height="12" fill="#28495a"/>
    <rect x="13" y="23" width="6" height="3" fill="#7fc97f"/>
    <rect x="10" y="33" width="4" height="10" fill="#10151e"/>
    <rect x="18" y="33" width="4" height="10" fill="#10151e"/>
  </g>
  <g transform="translate(160 0)">
    <rect x="11" y="9" width="10" height="10" fill="#d9c7a1"/>
    <rect x="12" y="10" width="8" height="7" fill="#f3ead7"/>
    <rect x="10" y="6" width="12" height="4" fill="#f0d35d"/>
    <rect x="8" y="18" width="16" height="14" fill="#5a8f4d"/>
    <rect x="7" y="18" width="4" height="12" fill="#28495a"/>
    <rect x="21" y="18" width="4" height="12" fill="#28495a"/>
    <rect x="13" y="22" width="6" height="3" fill="#7fc97f"/>
    <rect x="12" y="33" width="4" height="10" fill="#10151e"/>
    <rect x="16" y="33" width="4" height="10" fill="#10151e"/>
  </g>
  <g transform="translate(192 0)">
    <rect x="11" y="9" width="10" height="10" fill="#d9c7a1"/>
    <rect x="12" y="10" width="8" height="7" fill="#f3ead7"/>
    <rect x="10" y="6" width="12" height="4" fill="#f0d35d"/>
    <rect x="8" y="18" width="16" height="14" fill="#5a8f4d"/>
    <rect x="7" y="18" width="4" height="12" fill="#28495a"/>
    <rect x="21" y="18" width="4" height="12" fill="#28495a"/>
    <rect x="13" y="22" width="6" height="3" fill="#7fc97f"/>
    <rect x="9" y="33" width="4" height="10" fill="#10151e"/>
    <rect x="19" y="33" width="4" height="10" fill="#10151e"/>
  </g>
  <g transform="translate(224 0)">
    <rect x="11" y="10" width="10" height="10" fill="#d9c7a1"/>
    <rect x="12" y="11" width="8" height="7" fill="#f3ead7"/>
    <rect x="10" y="7" width="12" height="4" fill="#f0d35d"/>
    <rect x="8" y="19" width="16" height="14" fill="#5a8f4d"/>
    <rect x="7" y="19" width="4" height="12" fill="#28495a"/>
    <rect x="21" y="19" width="4" height="12" fill="#28495a"/>
    <rect x="13" y="23" width="6" height="3" fill="#7fc97f"/>
    <rect x="10" y="33" width="4" height="10" fill="#10151e"/>
    <rect x="18" y="33" width="4" height="10" fill="#10151e"/>
  </g>
  <g transform="translate(256 0)">
    <rect x="11" y="9" width="10" height="10" fill="#d9c7a1"/>
    <rect x="12" y="10" width="8" height="7" fill="#f3ead7"/>
    <rect x="10" y="6" width="12" height="4" fill="#f0d35d"/>
    <rect x="8" y="18" width="16" height="14" fill="#5a8f4d"/>
    <rect x="7" y="18" width="4" height="12" fill="#28495a"/>
    <rect x="21" y="18" width="4" height="12" fill="#28495a"/>
    <rect x="13" y="22" width="6" height="3" fill="#7fc97f"/>
    <rect x="12" y="33" width="4" height="10" fill="#10151e"/>
    <rect x="16" y="33" width="4" height="10" fill="#10151e"/>
  </g>
  <g transform="translate(288 0)">
    <rect x="11" y="9" width="10" height="10" fill="#d9c7a1"/>
    <rect x="12" y="10" width="8" height="7" fill="#f3ead7"/>
    <rect x="10" y="6" width="12" height="4" fill="#f0d35d"/>
    <rect x="8" y="18" width="16" height="14" fill="#5a8f4d"/>
    <rect x="7" y="18" width="4" height="12" fill="#28495a"/>
    <rect x="21" y="18" width="4" height="12" fill="#28495a"/>
    <rect x="13" y="22" width="6" height="3" fill="#7fc97f"/>
    <rect x="9" y="33" width="4" height="10" fill="#10151e"/>
    <rect x="19" y="33" width="4" height="10" fill="#10151e"/>
  </g>
  <g transform="translate(320 0)">
    <rect x="11" y="10" width="10" height="10" fill="#d9c7a1"/>
    <rect x="12" y="11" width="8" height="7" fill="#f3ead7"/>
    <rect x="10" y="7" width="12" height="4" fill="#f0d35d"/>
    <rect x="8" y="19" width="16" height="14" fill="#5a8f4d"/>
    <rect x="7" y="19" width="4" height="12" fill="#28495a"/>
    <rect x="21" y="19" width="4" height="12" fill="#28495a"/>
    <rect x="13" y="23" width="6" height="3" fill="#7fc97f"/>
    <rect x="10" y="33" width="4" height="10" fill="#10151e"/>
    <rect x="18" y="33" width="4" height="10" fill="#10151e"/>
  </g>
  <g transform="translate(352 0)">
    <rect x="11" y="9" width="10" height="10" fill="#d9c7a1"/>
    <rect x="12" y="10" width="8" height="7" fill="#f3ead7"/>
    <rect x="10" y="6" width="12" height="4" fill="#f0d35d"/>
    <rect x="8" y="18" width="16" height="14" fill="#5a8f4d"/>
    <rect x="7" y="18" width="4" height="12" fill="#28495a"/>
    <rect x="21" y="18" width="4" height="12" fill="#28495a"/>
    <rect x="13" y="22" width="6" height="3" fill="#7fc97f"/>
    <rect x="12" y="33" width="4" height="10" fill="#10151e"/>
    <rect x="16" y="33" width="4" height="10" fill="#10151e"/>
  </g>
</svg>
